<?xml version="1.0" encoding="UTF-8" standalone="no"?>
<!-- Created with Inkscape (http://www.inkscape.org/) -->

<svg
   xmlns:dc="http://purl.org/dc/elements/1.1/"
   xmlns:cc="http://creativecommons.org/ns#"
   xmlns:rdf="http://www.w3.org/1999/02/22-rdf-syntax-ns#"
   xmlns:svg="http://www.w3.org/2000/svg"
   xmlns="http://www.w3.org/2000/svg"
   xmlns:sodipodi="http://sodipodi.sourceforge.net/DTD/sodipodi-0.dtd"
   xmlns:inkscape="http://www.inkscape.org/namespaces/inkscape"
   version="1.1"
   id="svg2"
   xml:space="preserve"
   width="5094.1284"
   height="2503.21"
   viewBox="0 0 5094.1284 2503.21"
   sodipodi:docname="logo.svg"
   inkscape:version="0.92.4 5da689c313, 2019-01-14"
   inkscape:export-filename="/home/shadow/bea/busquedayrescate/static/img/logo.png"
   inkscape:export-xdpi="5.6500001"
   inkscape:export-ydpi="5.6500001"><metadata
     id="metadata8"><rdf:RDF><cc:Work
         rdf:about=""><dc:format>image/svg+xml</dc:format><dc:type
           rdf:resource="http://purl.org/dc/dcmitype/StillImage" /><dc:title></dc:title></cc:Work></rdf:RDF></metadata><defs
     id="defs6"><clipPath
       clipPathUnits="userSpaceOnUse"
       id="clipPath18"><path
         d="m 721.415,2116.629 c -138.489,0 -250.754,-112.265 -250.754,-250.754 v 0 -1167.547 c 0,-138.488 112.265,-250.758 250.754,-250.758 v 0 h 1263.117 c 138.49,0 250.753,112.27 250.753,250.758 v 0 1167.547 c 0,138.489 -112.263,250.754 -250.753,250.754 v 0 z"
         id="path16"
         inkscape:connector-curvature="0" /></clipPath><linearGradient
       x1="0"
       y1="0"
       x2="1"
       y2="0"
       gradientUnits="userSpaceOnUse"
       gradientTransform="matrix(1764.624,0,0,1764.624,470.66138,1282.0991)"
       spreadMethod="pad"
       id="linearGradient36"><stop
         style="stop-opacity:1;stop-color:#e2a400"
         offset="0"
         id="stop24" /><stop
         style="stop-opacity:1;stop-color:#eeab23"
         offset="0.47420711"
         id="stop26" /><stop
         style="stop-opacity:1;stop-color:#eeab23"
         offset="0.47921"
         id="stop28" /><stop
         style="stop-opacity:1;stop-color:#ca9330"
         offset="0.9571471"
         id="stop30" /><stop
         style="stop-opacity:1;stop-color:#ca9330"
         offset="0.994842"
         id="stop32" /><stop
         style="stop-opacity:1;stop-color:#ca9330"
         offset="1"
         id="stop34" /></linearGradient><clipPath
       clipPathUnits="userSpaceOnUse"
       id="clipPath46"><path
         d="m 2113.204,1652.268 c -36.86,-15.789 -75.059,-64.737 -103.454,-96.974 v 0 c -51.712,-58.718 -107.499,-108.882 -169.354,-148.205 v 0 c -136.475,-86.789 -267.836,-67.47 -403.363,-132.794 v 0 c -45.916,-22.124 -110.875,-60.259 -123.509,-125.662 v 0 c -7.295,-37.739 -7.362,-67.008 5.046,-97.26 v 0 c 12.815,-31.225 69.442,-116.312 -14.427,-129.169 v 0 c -4.304,-0.66 -7.464,-5.01 -8.733,-9.506 v 0 c -5.797,-0.582 -12.834,-7.614 -14.093,-15.088 v 0 c -26.004,-153.817 184.577,-105.443 231.067,12.648 v 0 c 38.76,-35.211 88.888,-52.988 140.282,-39.106 v 0 c 55.68,15.051 182.121,86.017 158.282,166.786 v 0 c 31.211,3.268 62.362,13.597 90.727,32.663 v 0 c 58.617,39.4 155.626,159.415 101.967,217.342 v 0 c 35.899,20.165 70.55,45.124 102.621,76.995 v 0 c 52.885,52.546 135.802,153.289 113.618,235.445 v 0 c -11.348,41.977 -31.134,62.801 -61.962,62.806 v 0 c -12.906,0 -27.741,-3.65 -44.715,-10.921"
         id="path44"
         inkscape:connector-curvature="0" /></clipPath><linearGradient
       x1="0"
       y1="0"
       x2="1"
       y2="0"
       gradientUnits="userSpaceOnUse"
       gradientTransform="matrix(-686.18427,241.48216,-241.48216,-686.18427,2063.6353,1092.656)"
       spreadMethod="pad"
       id="linearGradient60"><stop
         style="stop-opacity:1;stop-color:#fcfcfc"
         offset="0"
         id="stop52" /><stop
         style="stop-opacity:1;stop-color:#c1c2c4"
         offset="0.84221775"
         id="stop54" /><stop
         style="stop-opacity:1;stop-color:#c1c2c4"
         offset="0.907557"
         id="stop56" /><stop
         style="stop-opacity:1;stop-color:#c1c2c4"
         offset="1"
         id="stop58" /></linearGradient><clipPath
       clipPathUnits="userSpaceOnUse"
       id="clipPath70"><path
         d="m 501.548,1600.383 c -22.177,-82.156 60.734,-182.899 113.621,-235.445 v 0 c 32.062,-31.871 66.726,-56.83 102.62,-76.995 v 0 c -53.66,-57.927 43.355,-177.942 101.96,-217.342 v 0 c 28.376,-19.066 59.521,-29.395 90.733,-32.663 v 0 C 886.643,957.169 1013.084,886.203 1068.77,871.152 v 0 c 51.387,-13.882 101.517,3.895 140.268,39.106 v 0 C 1255.53,792.167 1466.11,743.793 1440.12,897.61 v 0 c -1.266,7.474 -8.297,14.506 -14.105,15.088 v 0 c -1.265,4.496 -4.429,8.846 -8.727,9.506 v 0 c -83.871,12.857 -27.238,97.944 -14.428,129.169 v 0 c 12.408,30.252 12.348,59.521 5.047,97.26 v 0 c -12.636,65.403 -77.594,103.538 -123.515,125.662 v 0 c -135.517,65.324 -266.884,46.005 -403.365,132.794 v 0 c -61.854,39.323 -117.635,89.487 -169.34,148.205 v 0 c -28.402,32.237 -66.601,81.185 -103.466,96.974 v 0 c -16.963,7.271 -31.804,10.921 -44.709,10.921 v 0 c -30.835,0 -50.622,-20.823 -61.964,-62.806"
         id="path68"
         inkscape:connector-curvature="0" /></clipPath><linearGradient
       x1="0"
       y1="0"
       x2="1"
       y2="0"
       gradientUnits="userSpaceOnUse"
       gradientTransform="matrix(686.18427,241.48216,241.48216,-686.18427,657.79364,1092.6556)"
       spreadMethod="pad"
       id="linearGradient84"><stop
         style="stop-opacity:1;stop-color:#fcfcfc"
         offset="0"
         id="stop76" /><stop
         style="stop-opacity:1;stop-color:#c1c2c4"
         offset="0.84221775"
         id="stop78" /><stop
         style="stop-opacity:1;stop-color:#c1c2c4"
         offset="0.907557"
         id="stop80" /><stop
         style="stop-opacity:1;stop-color:#c1c2c4"
         offset="1"
         id="stop82" /></linearGradient><clipPath
       clipPathUnits="userSpaceOnUse"
       id="clipPath94"><path
         d="m 952.112,1204.343 v -1.726 c 0.458,-230.956 188.492,-418.692 419.555,-418.692 v 0 c 231.344,0 419.548,188.211 419.548,419.555 v 0 c 0,231.344 -188.204,419.554 -419.548,419.554 v 0 c -231.063,0 -419.097,-187.735 -419.555,-418.691 m 35.335,-0.863 c 0,211.857 172.356,384.219 384.22,384.219 v 0 c 211.856,0 384.212,-172.362 384.212,-384.219 v 0 c 0,-211.864 -172.356,-384.22 -384.212,-384.22 v 0 c -211.864,0 -384.22,172.356 -384.22,384.22"
         id="path92"
         inkscape:connector-curvature="0" /></clipPath><linearGradient
       x1="0"
       y1="0"
       x2="1"
       y2="0"
       gradientUnits="userSpaceOnUse"
       gradientTransform="matrix(839.10339,0,0,839.10339,952.11169,1203.4799)"
       spreadMethod="pad"
       id="linearGradient112"><stop
         style="stop-opacity:1;stop-color:#e2a400"
         offset="0"
         id="stop100" /><stop
         style="stop-opacity:1;stop-color:#eeab23"
         offset="0.47420711"
         id="stop102" /><stop
         style="stop-opacity:1;stop-color:#eeab23"
         offset="0.47921"
         id="stop104" /><stop
         style="stop-opacity:1;stop-color:#ca9330"
         offset="0.9571471"
         id="stop106" /><stop
         style="stop-opacity:1;stop-color:#ca9330"
         offset="0.994842"
         id="stop108" /><stop
         style="stop-opacity:1;stop-color:#ca9330"
         offset="1"
         id="stop110" /></linearGradient><clipPath
       clipPathUnits="userSpaceOnUse"
       id="clipPath124"><path
         d="m 318.332,0 h 4100 v 2653.937 h -4100 z"
         id="path122"
         inkscape:connector-curvature="0" /></clipPath><clipPath
       clipPathUnits="userSpaceOnUse"
       id="clipPath136"><path
         d="m 318.332,0 h 4100 v 2653.938 h -4100 z"
         id="path134"
         inkscape:connector-curvature="0" /></clipPath><clipPath
       clipPathUnits="userSpaceOnUse"
       id="clipPath152"><path
         d="m 318.332,0 h 4100 v 2653.937 h -4100 z"
         id="path150"
         inkscape:connector-curvature="0" /></clipPath><clipPath
       clipPathUnits="userSpaceOnUse"
       id="clipPath162"><path
         d="m 318.332,0 h 4100 v 2653.938 h -4100 z"
         id="path160"
         inkscape:connector-curvature="0" /></clipPath><clipPath
       clipPathUnits="userSpaceOnUse"
       id="clipPath174"><path
         d="m 1028.01,1201.975 c 0,-193.946 157.226,-351.166 351.167,-351.166 v 0 c 193.953,0 351.179,157.22 351.179,351.166 v 0 c 0,193.953 -157.226,351.179 -351.179,351.179 v 0 c -193.941,0 -351.167,-157.226 -351.167,-351.179"
         id="path172"
         inkscape:connector-curvature="0" /></clipPath><linearGradient
       x1="0"
       y1="0"
       x2="1"
       y2="0"
       gradientUnits="userSpaceOnUse"
       gradientTransform="matrix(1764.6277,0,0,1764.6277,469.42377,1201.9813)"
       spreadMethod="pad"
       id="linearGradient192"><stop
         style="stop-opacity:1;stop-color:#e2a400"
         offset="0"
         id="stop180" /><stop
         style="stop-opacity:1;stop-color:#eeab23"
         offset="0.47420711"
         id="stop182" /><stop
         style="stop-opacity:1;stop-color:#eeab23"
         offset="0.47921"
         id="stop184" /><stop
         style="stop-opacity:1;stop-color:#ca9330"
         offset="0.9571471"
         id="stop186" /><stop
         style="stop-opacity:1;stop-color:#ca9330"
         offset="0.994842"
         id="stop188" /><stop
         style="stop-opacity:1;stop-color:#ca9330"
         offset="1"
         id="stop190" /></linearGradient><clipPath
       clipPathUnits="userSpaceOnUse"
       id="clipPath202"><path
         d="m 1485.322,1590 c -35.635,10.311 -73.226,15.946 -112.133,15.946 v 0 c -222.947,0 -404.33,-181.378 -404.33,-404.325 v 0 c 0,-222.947 181.383,-404.323 404.33,-404.323 v 0 c 222.661,0 403.865,180.927 404.329,403.482 v 0 1.682 c -0.318,156.744 -90.354,292.722 -221.315,359.51 v 0 c 14.865,30.96 55.936,45.898 55.936,45.898 v 0 c -33.297,9.518 -57.285,1.223 -73.152,-9.747 v 0 c 4.688,36.87 -2.188,88.916 -62.92,125.121 v 0 c 0,0 52.094,-64.7 9.255,-133.244 m -462.838,-388.379 c 0,28.485 3.506,56.154 9.937,82.684 v 0 c 88.971,15.315 350.485,72.026 469.361,224.44 v 0 c 0,0 72.691,-185.424 218.876,-260.201 v 0 c 2.061,-15.357 3.236,-31.002 3.236,-46.923 v 0 c 0,-193.376 -157.329,-350.7 -350.705,-350.7 v 0 c -193.378,0 -350.705,157.324 -350.705,350.7"
         id="path200"
         inkscape:connector-curvature="0" /></clipPath><linearGradient
       x1="0"
       y1="0"
       x2="1"
       y2="0"
       gradientUnits="userSpaceOnUse"
       gradientTransform="matrix(808.659,0,0,808.659,968.85937,1260.2716)"
       spreadMethod="pad"
       id="linearGradient216"><stop
         style="stop-opacity:1;stop-color:#d3d8dd"
         offset="0"
         id="stop208" /><stop
         style="stop-opacity:1;stop-color:#d3d8dd"
         offset="0.03022412"
         id="stop210" /><stop
         style="stop-opacity:1;stop-color:#f3f4f8"
         offset="0.907557"
         id="stop212" /><stop
         style="stop-opacity:1;stop-color:#f3f4f8"
         offset="1"
         id="stop214" /></linearGradient><clipPath
       clipPathUnits="userSpaceOnUse"
       id="clipPath226"><path
         d="m 1173.805,1092.516 c 16.232,-89.912 99.287,-168.184 199.384,-168.184 v 0 c 100.097,0 183.15,78.272 199.376,168.184 v 0 z"
         id="path224"
         inkscape:connector-curvature="0" /></clipPath><linearGradient
       x1="0"
       y1="0"
       x2="1"
       y2="0"
       gradientUnits="userSpaceOnUse"
       gradientTransform="matrix(398.76086,0,0,398.76086,1173.8054,1008.424)"
       spreadMethod="pad"
       id="linearGradient240"><stop
         style="stop-opacity:1;stop-color:#d3d8dd"
         offset="0"
         id="stop232" /><stop
         style="stop-opacity:1;stop-color:#d3d8dd"
         offset="0.03022412"
         id="stop234" /><stop
         style="stop-opacity:1;stop-color:#f3f4f8"
         offset="0.907557"
         id="stop236" /><stop
         style="stop-opacity:1;stop-color:#f3f4f8"
         offset="1"
         id="stop238" /></linearGradient><clipPath
       clipPathUnits="userSpaceOnUse"
       id="clipPath250"><path
         d="m 1199.61,1242.544 c 0,-25.859 20.968,-46.827 46.827,-46.827 v 0 c 25.864,0 46.826,20.968 46.826,46.827 v 0 c 0,25.865 -20.962,46.826 -46.826,46.826 v 0 c -25.859,0 -46.827,-20.961 -46.827,-46.826"
         id="path248"
         inkscape:connector-curvature="0" /></clipPath><linearGradient
       x1="0"
       y1="0"
       x2="1"
       y2="0"
       gradientUnits="userSpaceOnUse"
       gradientTransform="matrix(93.65271,0,0,93.65271,1199.6102,1242.5438)"
       spreadMethod="pad"
       id="linearGradient264"><stop
         style="stop-opacity:1;stop-color:#d3d8dd"
         offset="0"
         id="stop256" /><stop
         style="stop-opacity:1;stop-color:#d3d8dd"
         offset="0.03022412"
         id="stop258" /><stop
         style="stop-opacity:1;stop-color:#f3f4f8"
         offset="0.907557"
         id="stop260" /><stop
         style="stop-opacity:1;stop-color:#f3f4f8"
         offset="1"
         id="stop262" /></linearGradient><clipPath
       clipPathUnits="userSpaceOnUse"
       id="clipPath274"><path
         d="m 1453.109,1242.544 c 0,-25.859 20.967,-46.827 46.826,-46.827 v 0 c 25.865,0 46.827,20.968 46.827,46.827 v 0 c 0,25.865 -20.962,46.826 -46.827,46.826 v 0 c -25.859,0 -46.826,-20.961 -46.826,-46.826"
         id="path272"
         inkscape:connector-curvature="0" /></clipPath><linearGradient
       x1="0"
       y1="0"
       x2="1"
       y2="0"
       gradientUnits="userSpaceOnUse"
       gradientTransform="matrix(93.652832,0,0,93.652832,1453.1088,1242.5438)"
       spreadMethod="pad"
       id="linearGradient288"><stop
         style="stop-opacity:1;stop-color:#d3d8dd"
         offset="0"
         id="stop280" /><stop
         style="stop-opacity:1;stop-color:#d3d8dd"
         offset="0.03022412"
         id="stop282" /><stop
         style="stop-opacity:1;stop-color:#f3f4f8"
         offset="0.907557"
         id="stop284" /><stop
         style="stop-opacity:1;stop-color:#f3f4f8"
         offset="1"
         id="stop286" /></linearGradient></defs><sodipodi:namedview
     pagecolor="#ffffff"
     bordercolor="#666666"
     borderopacity="1"
     objecttolerance="10"
     gridtolerance="10"
     guidetolerance="10"
     inkscape:pageopacity="0"
     inkscape:pageshadow="2"
     inkscape:window-width="1440"
     inkscape:window-height="781"
     id="namedview4"
     showgrid="false"
     fit-margin-top="100"
     fit-margin-left="100"
     fit-margin-right="100"
     fit-margin-bottom="100"
     inkscape:zoom="0.1399739"
     inkscape:cx="2374.1223"
     inkscape:cy="958.69499"
     inkscape:window-x="0"
     inkscape:window-y="27"
     inkscape:window-maximized="1"
     inkscape:current-layer="g10" /><g
     id="g10"
     inkscape:groupmode="layer"
     inkscape:label="busqueda logo"
     transform="matrix(1.3333333,0,0,-1.3333333,-527.54798,2999.2393)"><g
       id="g12"><g
         id="g14"
         clip-path="url(#clipPath18)"><g
           id="g20"><g
             id="g22"><path
               d="m 721.415,2116.629 c -138.489,0 -250.754,-112.265 -250.754,-250.754 v 0 -1167.547 c 0,-138.488 112.265,-250.758 250.754,-250.758 v 0 h 1263.117 c 138.49,0 250.753,112.27 250.753,250.758 v 0 1167.547 c 0,138.489 -112.263,250.754 -250.753,250.754 v 0 z"
               style="fill:url(#linearGradient36);stroke:none"
               id="path38"
               inkscape:connector-curvature="0" /></g></g></g></g><g
       id="g40"><g
         id="g42"
         clip-path="url(#clipPath46)"><g
           id="g48"><g
             id="g50"><path
               d="m 2113.204,1652.268 c -36.86,-15.789 -75.059,-64.737 -103.454,-96.974 v 0 c -51.712,-58.718 -107.499,-108.882 -169.354,-148.205 v 0 c -136.475,-86.789 -267.836,-67.47 -403.363,-132.794 v 0 c -45.916,-22.124 -110.875,-60.259 -123.509,-125.662 v 0 c -7.295,-37.739 -7.362,-67.008 5.046,-97.26 v 0 c 12.815,-31.225 69.442,-116.312 -14.427,-129.169 v 0 c -4.304,-0.66 -7.464,-5.01 -8.733,-9.506 v 0 c -5.797,-0.582 -12.834,-7.614 -14.093,-15.088 v 0 c -26.004,-153.817 184.577,-105.443 231.067,12.648 v 0 c 38.76,-35.211 88.888,-52.988 140.282,-39.106 v 0 c 55.68,15.051 182.121,86.017 158.282,166.786 v 0 c 31.211,3.268 62.362,13.597 90.727,32.663 v 0 c 58.617,39.4 155.626,159.415 101.967,217.342 v 0 c 35.899,20.165 70.55,45.124 102.621,76.995 v 0 c 52.885,52.546 135.802,153.289 113.618,235.445 v 0 c -11.348,41.977 -31.134,62.801 -61.962,62.806 v 0 c -12.906,0 -27.741,-3.65 -44.715,-10.921"
               style="fill:url(#linearGradient60);stroke:none"
               id="path62"
               inkscape:connector-curvature="0" /></g></g></g></g><g
       id="g64"><g
         id="g66"
         clip-path="url(#clipPath70)"><g
           id="g72"><g
             id="g74"><path
               d="m 501.548,1600.383 c -22.177,-82.156 60.734,-182.899 113.621,-235.445 v 0 c 32.062,-31.871 66.726,-56.83 102.62,-76.995 v 0 c -53.66,-57.927 43.355,-177.942 101.96,-217.342 v 0 c 28.376,-19.066 59.521,-29.395 90.733,-32.663 v 0 C 886.643,957.169 1013.084,886.203 1068.77,871.152 v 0 c 51.387,-13.882 101.517,3.895 140.268,39.106 v 0 C 1255.53,792.167 1466.11,743.793 1440.12,897.61 v 0 c -1.266,7.474 -8.297,14.506 -14.105,15.088 v 0 c -1.265,4.496 -4.429,8.846 -8.727,9.506 v 0 c -83.871,12.857 -27.238,97.944 -14.428,129.169 v 0 c 12.408,30.252 12.348,59.521 5.047,97.26 v 0 c -12.636,65.403 -77.594,103.538 -123.515,125.662 v 0 c -135.517,65.324 -266.884,46.005 -403.365,132.794 v 0 c -61.854,39.323 -117.635,89.487 -169.34,148.205 v 0 c -28.402,32.237 -66.601,81.185 -103.466,96.974 v 0 c -16.963,7.271 -31.804,10.921 -44.709,10.921 v 0 c -30.835,0 -50.622,-20.823 -61.964,-62.806"
               style="fill:url(#linearGradient84);stroke:none"
               id="path86"
               inkscape:connector-curvature="0" /></g></g></g></g><g
       id="g88"><g
         id="g90"
         clip-path="url(#clipPath94)"><g
           id="g96"><g
             id="g98"><path
               d="m 952.112,1204.343 v -1.726 c 0.458,-230.956 188.492,-418.692 419.555,-418.692 v 0 c 231.344,0 419.548,188.211 419.548,419.555 v 0 c 0,231.344 -188.204,419.554 -419.548,419.554 v 0 c -231.063,0 -419.097,-187.735 -419.555,-418.691 m 35.335,-0.863 c 0,211.857 172.356,384.219 384.22,384.219 v 0 c 211.856,0 384.212,-172.362 384.212,-384.219 v 0 c 0,-211.864 -172.356,-384.22 -384.212,-384.22 v 0 c -211.864,0 -384.22,172.356 -384.22,384.22"
               style="fill:url(#linearGradient112);stroke:none"
               id="path114"
               inkscape:connector-curvature="0" /></g></g></g></g><path
       d="M 4133.694,1201.928 H 2362.673 v 247.318 h 1771.021 z"
       style="fill:#4a4b3c;fill-opacity:1;fill-rule:nonzero;stroke:none"
       id="path116"
       inkscape:connector-curvature="0" /><g
       id="g118"><g
         id="g120"
         clip-path="url(#clipPath124)"><g
           id="g126"
           transform="translate(3405.0725,1320.3788)"><path
             d="m 0,0 c 0,-86.646 -70.239,-156.891 -156.891,-156.891 -86.645,0 -156.885,70.245 -156.885,156.891 0,86.645 70.24,156.891 156.885,156.891 C -70.239,156.891 0,86.645 0,0"
             style="fill:#ffffff;fill-opacity:1;fill-rule:nonzero;stroke:none"
             id="path128"
             inkscape:connector-curvature="0" /></g></g></g><g
       id="g130"><g
         id="g132"
         clip-path="url(#clipPath136)"><g
           id="g138"
           transform="translate(2534.8323,1607.3475)"><path
             d="m 0,0 c 0,-4.153 -0.624,-8.315 -1.871,-12.478 -1.248,-4.152 -3.119,-8.207 -5.615,-12.165 -2.495,-3.947 -6.239,-7.378 -11.229,-10.294 -7.077,-4.152 -14.252,-7.173 -21.523,-9.045 -7.282,-1.872 -14.144,-3.119 -20.587,-3.743 -6.453,-0.624 -11.961,-0.936 -16.532,-0.936 h -9.358 -71.12 v 530.275 h 73.615 9.358 c 4.991,0 10.605,-0.419 16.844,-1.247 6.239,-0.839 12.682,-2.086 19.339,-3.743 6.649,-1.667 13.102,-4.367 19.34,-8.11 10.391,-6.659 16.22,-14.349 17.468,-23.083 C -0.624,436.697 0,427.125 0,416.734 V 279.486 c 0,-4.991 -0.73,-9.358 -2.184,-13.101 -1.462,-3.743 -4.473,-7.906 -9.045,-12.477 -2.086,-2.495 -4.893,-4.893 -8.422,-7.175 -3.538,-2.29 -7.174,-4.366 -10.917,-6.238 -3.744,-1.871 -7.078,-3.431 -9.982,-4.679 -2.915,-1.248 -4.582,-1.871 -4.991,-1.871 0.409,0 1.871,-0.527 4.367,-1.56 2.495,-1.043 5.195,-2.398 8.111,-4.055 2.904,-1.667 5.925,-3.431 9.045,-5.303 3.12,-1.871 5.926,-3.85 8.422,-5.926 8.734,-7.487 13.51,-15.08 14.349,-22.771 C -0.419,186.629 0,178.002 0,168.44 V 11.229 Z m -43.046,431.706 c 0,7.896 -0.838,14.554 -2.495,19.963 -1.667,5.401 -6.034,9.143 -13.101,11.23 -9.153,3.324 -20.382,4.991 -33.688,4.991 h -23.706 V 238.936 h 22.458 c 9.562,0 17.78,1.345 24.642,4.054 6.863,2.7 12.371,5.927 16.533,9.67 2.904,2.905 5.195,8.003 6.862,15.284 1.657,7.273 2.495,14.661 2.495,22.147 z m 0,-255.156 c 0,7.896 -0.935,15.382 -2.807,22.459 -1.872,7.067 -6.141,12.477 -12.789,16.22 -6.658,3.743 -12.379,6.131 -17.156,7.174 -4.786,1.034 -10.917,1.56 -18.403,1.56 h -22.459 l 0.624,-257.651 h 26.201 4.991 c 2.906,0 6.336,0.214 10.294,0.624 3.947,0.418 8.002,1.149 12.165,2.183 4.153,1.043 7.896,2.603 11.23,4.679 4.152,3.333 6.55,7.174 7.174,11.541 0.624,4.367 0.935,9.046 0.935,14.037 z m 177.174,332.514 -17.468,12.477 68,45.541 29.945,-19.339 z m 95.449,-529.652 c -2.495,-6.238 -6.657,-11.745 -12.476,-16.532 -5.83,-4.776 -13.725,-8.519 -23.706,-11.229 -9.983,-2.7 -22.459,-4.055 -37.432,-4.055 -14.564,0 -26.826,1.462 -36.808,4.367 -9.981,2.914 -18.092,6.765 -24.33,11.541 -6.238,4.787 -10.713,10.401 -13.413,16.844 -2.71,6.453 -4.055,13.209 -4.055,20.276 V 480.99 h 41.798 V -13.102 c 0,-7.066 3.119,-13.1 9.359,-18.091 6.238,-4.991 15.382,-7.486 27.449,-7.486 11.229,0 19.963,2.602 26.202,7.798 6.238,5.205 9.357,11.337 9.357,18.403 V 480.99 H 233.32 V -0.624 c 0,-7.067 -1.247,-13.725 -3.743,-19.964 m 238.316,8.734 c -1.248,-7.486 -4.474,-14.241 -9.67,-20.275 -5.205,-6.024 -13.003,-10.917 -23.395,-14.66 -10.4,-3.743 -24.749,-5.615 -43.046,-5.615 -18.715,0 -33.483,1.774 -44.293,5.303 -10.82,3.538 -18.823,8.422 -24.018,14.66 -5.205,6.239 -8.53,13.209 -9.982,20.899 -1.463,7.701 -2.183,15.499 -2.183,23.395 v 109.798 l 42.422,0.624 V -4.991 c 0,-4.153 0.409,-8.315 1.248,-12.477 0.828,-4.153 2.7,-7.896 5.614,-11.23 2.905,-3.323 6.755,-6.024 11.541,-8.11 4.776,-2.076 11.327,-3.119 19.651,-3.119 8.316,0 14.865,1.15 19.652,3.431 4.776,2.291 8.315,5.099 10.605,8.422 2.281,3.334 3.743,7.077 4.367,11.23 0.624,4.162 0.936,8.11 0.936,11.853 v 115.413 c 0,8.734 -1.043,16.22 -3.119,22.458 -2.086,6.239 -4.368,13.511 -6.863,21.835 -2.086,6.239 -4.269,11.951 -6.549,17.156 -2.291,5.196 -4.894,10.187 -7.799,14.973 -2.914,4.776 -6.033,9.562 -9.358,14.348 -3.334,4.777 -7.077,10.294 -11.229,16.533 l -41.174,63.008 c -7.077,10.392 -12.166,19.545 -15.285,27.451 -3.119,7.895 -6.141,17.467 -9.046,28.696 -2.914,11.23 -4.581,20.899 -4.99,29.01 -0.42,8.11 -0.624,17.779 -0.624,29.009 v 25.578 c 0,7.896 0.624,15.694 1.871,23.394 1.248,7.691 4.572,14.554 9.981,20.587 5.401,6.024 13.307,10.81 23.707,14.349 10.391,3.529 24.739,5.303 43.046,5.303 18.716,0 33.376,-1.774 43.982,-5.303 10.605,-3.539 18.608,-8.325 24.018,-14.349 5.401,-6.033 8.734,-13.003 9.982,-20.899 1.248,-7.905 1.872,-15.81 1.872,-23.706 v -97.945 h -42.423 v 115.413 c 0,4.153 -0.419,8.315 -1.247,12.477 -0.839,4.152 -2.496,7.895 -4.991,11.229 -2.496,3.324 -6.141,5.927 -10.917,7.798 -4.787,1.872 -11.132,2.808 -19.029,2.808 -8.733,0 -15.596,-1.151 -20.587,-3.431 -4.99,-2.291 -8.733,-4.991 -11.229,-8.11 -2.495,-3.12 -4.055,-6.766 -4.679,-10.918 -0.624,-4.162 -0.935,-8.11 -0.935,-11.853 v -31.193 c 0,-12.067 0.097,-22.566 0.311,-31.504 0.205,-8.949 1.97,-19.447 5.303,-31.505 2.496,-10.401 5.615,-19.34 9.358,-26.826 3.743,-7.486 8.734,-16.015 14.973,-25.578 l 39.303,-60.514 c 4.571,-7.076 9.981,-15.498 16.219,-25.265 6.239,-9.778 11.639,-20.276 16.221,-31.505 2.495,-5.829 4.571,-11.025 6.238,-15.597 1.658,-4.581 3.119,-9.152 4.367,-13.724 1.248,-4.582 2.183,-9.465 2.807,-14.661 0.624,-5.205 0.937,-11.132 0.937,-17.78 V 11.229 c 0,-7.896 -0.624,-15.596 -1.872,-23.083 m 218.344,-27.449 c -7.486,-4.153 -15.908,-7.379 -25.266,-9.67 -9.358,-2.281 -21.523,-3.431 -36.495,-3.431 -29.537,0.419 -50.328,5.517 -62.386,15.284 -12.068,9.777 -18.092,21.942 -18.092,36.496 v 420.477 c 0,7.896 0.722,15.801 2.184,23.706 1.453,7.896 4.776,14.866 9.981,20.899 5.196,6.024 13.199,10.81 24.019,14.349 10.81,3.529 25.578,5.303 44.294,5.303 18.296,0 32.645,-1.774 43.045,-5.303 10.391,-3.539 18.296,-8.325 23.707,-14.349 5.4,-6.033 8.734,-12.896 9.982,-20.587 1.247,-7.7 1.871,-15.498 1.871,-23.394 V -20.588 l 26.202,-16.844 V -68 Z m -26.202,476.624 c 0,3.743 -0.311,7.691 -0.935,11.853 -0.624,4.152 -2.086,7.798 -4.368,10.918 -2.291,3.119 -5.926,5.819 -10.917,8.11 -4.991,2.28 -11.853,3.431 -20.587,3.431 -7.906,0 -14.349,-0.936 -19.339,-2.808 -4.992,-1.871 -8.842,-4.474 -11.542,-7.798 -2.71,-3.334 -4.474,-7.077 -5.303,-11.229 -0.838,-4.162 -1.247,-8.324 -1.247,-12.477 V -12.478 c 0,-7.066 3.431,-13.198 10.293,-18.403 6.862,-5.196 15.908,-7.798 27.138,-7.798 12.886,0 21.727,1.978 26.513,5.926 4.777,3.958 7.799,7.798 9.046,11.542 L 615.117,8.11 V 35.559 L 660.035,4.99 Z M 937.029,-20.588 c -2.496,-6.238 -6.658,-11.745 -12.477,-16.532 -5.829,-4.776 -13.725,-8.519 -23.706,-11.229 -9.982,-2.7 -22.459,-4.055 -37.432,-4.055 -14.562,0 -26.825,1.462 -36.807,4.367 -9.982,2.914 -18.091,6.765 -24.331,11.541 -6.238,4.787 -10.712,10.401 -13.412,16.844 -2.71,6.453 -4.055,13.209 -4.055,20.276 V 480.99 h 41.798 V -13.102 c 0,-7.066 3.12,-13.1 9.358,-18.091 6.238,-4.991 15.382,-7.486 27.449,-7.486 11.23,0 19.964,2.602 26.202,7.798 6.238,5.205 9.358,11.337 9.358,18.403 V 480.99 h 41.798 V -0.624 c 0,-7.067 -1.248,-13.725 -3.743,-19.964 m 81.097,-28.073 v 530.275 h 123.523 v -20.587 h -81.725 V 245.174 h 72.991 v -21.835 h -72.991 V -26.826 h 82.348 v -21.835 z m 349.049,35.559 c -1.871,-8.733 -7.174,-16.005 -15.908,-21.835 -6.239,-4.152 -13.316,-7.271 -21.211,-9.357 -7.906,-2.076 -15.285,-3.431 -22.147,-4.055 -6.862,-0.624 -12.789,-0.936 -17.78,-0.936 h -8.109 -70.497 v 529.652 h 74.24 9.357 c 4.571,0 9.875,-0.42 15.908,-1.248 6.025,-0.838 12.478,-2.086 19.34,-3.743 6.862,-1.667 13.412,-4.367 19.652,-8.11 10.809,-6.658 16.843,-14.251 18.091,-22.771 1.247,-8.529 1.871,-17.994 1.871,-28.385 V 9.981 c 0,-6.648 -0.935,-14.348 -2.807,-23.083 m -40.238,443.56 c 0,7.896 -0.936,14.349 -2.808,19.34 -1.871,4.991 -6.346,8.734 -13.413,11.229 -3.742,1.248 -7.905,2.388 -12.477,3.431 -4.581,1.034 -11.024,1.56 -19.34,1.56 h -26.201 V -34.313 h 28.073 6.863 c 4.152,0 9.357,0.625 15.596,1.872 6.239,1.248 11.23,3.12 14.973,5.615 4.571,3.334 7.174,7.174 7.798,11.541 0.624,4.367 0.936,9.261 0.936,14.661 z m 237.69,-479.119 v 271.376 h -74.239 V -48.661 h -41.798 v 468.514 c 0,7.896 0.722,15.801 2.183,23.706 1.453,7.896 4.777,14.866 9.982,20.899 5.196,6.024 13.198,10.81 24.018,14.349 10.811,3.529 25.579,5.303 44.294,5.303 18.296,0 32.645,-1.872 43.046,-5.615 10.391,-3.743 18.092,-8.529 23.083,-14.349 4.991,-5.829 8.11,-12.584 9.358,-20.275 1.247,-7.7 1.871,-15.498 1.871,-23.394 V -48.661 Z m 0,485.982 c 0,3.743 -0.312,7.691 -0.936,11.853 -0.623,4.152 -2.086,7.798 -4.367,10.918 -2.291,3.119 -5.927,5.819 -10.918,8.11 -4.99,2.28 -11.853,3.431 -20.587,3.431 -7.905,0 -14.348,-0.936 -19.34,-2.808 -4.99,-1.871 -8.84,-4.474 -11.541,-7.798 -2.709,-3.334 -4.473,-7.077 -5.302,-11.229 -0.838,-4.162 -1.248,-8.324 -1.248,-12.477 V 244.55 h 74.239 z"
             style="fill:#4a4b3c;fill-opacity:1;fill-rule:nonzero;stroke:none"
             id="path140"
             inkscape:connector-curvature="0" /></g><g
           id="g142"
           transform="translate(2506.8459,450.8309)"><path
             d="m 0,0 v 275.735 c 0,9.141 -1.143,18.151 -3.428,27.041 -2.285,8.878 -7.498,15.615 -15.615,20.185 -8.129,4.059 -15.745,6.855 -22.851,8.379 -7.117,1.523 -15.234,2.285 -24.374,2.285 H -89.119 V 0 h -51.034 v 646.684 h 85.31 9.141 c 6.094,0 13.33,-0.381 21.708,-1.143 8.379,-0.762 17.139,-2.166 26.279,-4.189 9.141,-2.036 17.519,-5.332 25.136,-9.903 13.199,-8.129 20.566,-17.519 22.09,-28.182 1.523,-10.664 2.285,-22.352 2.285,-35.038 V 400.654 c 0,-6.093 -0.762,-11.426 -2.285,-15.995 -1.524,-4.571 -5.082,-9.653 -10.664,-15.234 -2.547,-3.047 -5.975,-5.975 -10.284,-8.76 -4.32,-2.797 -8.759,-5.332 -13.329,-7.617 -4.57,-2.285 -8.64,-4.189 -12.187,-5.713 -3.559,-1.523 -5.594,-2.285 -6.094,-2.285 0.5,0 2.154,-0.511 4.951,-1.523 2.785,-1.024 6.094,-2.416 9.903,-4.19 3.808,-1.785 7.735,-3.939 11.805,-6.474 4.059,-2.547 7.356,-5.332 9.903,-8.379 8.629,-10.164 13.829,-19.685 15.615,-28.563 1.773,-8.891 2.666,-19.174 2.666,-30.849 L 51.796,0 Z m 0,585.748 c 0,9.64 -1.143,17.637 -3.428,23.993 -2.285,6.343 -7.498,10.782 -15.615,13.33 -11.175,4.058 -24.124,6.093 -38.847,6.093 H -89.119 V 351.905 h 24.374 c 10.664,0 20.947,1.643 30.849,4.951 9.902,3.297 17.388,7.237 22.47,11.807 3.547,3.546 6.344,9.64 8.379,18.281 C -1.023,395.572 0,404.201 0,412.841 Z M 142.439,0.762 V 648.207 H 293.256 V 623.071 H 193.474 V 359.522 h 89.118 V 332.863 H 193.474 V 27.422 H 294.018 V 0.762 Z m 422.748,44.94 c -1.523,-9.14 -5.462,-17.388 -11.806,-24.755 -6.356,-7.355 -15.877,-13.33 -28.564,-17.9 -12.699,-4.57 -30.218,-6.856 -52.557,-6.856 -22.851,0 -40.882,2.166 -54.081,6.475 -13.21,4.32 -22.982,10.283 -29.325,17.9 -6.356,7.618 -10.415,16.127 -12.188,25.517 C 374.881,55.485 374,65.007 374,74.647 v 134.059 l 51.796,0.762 V 54.081 c 0,-5.07 0.5,-10.152 1.523,-15.234 1.012,-5.07 3.297,-9.64 6.856,-13.71 3.547,-4.059 8.248,-7.356 14.092,-9.903 5.831,-2.535 13.829,-3.808 23.993,-3.808 10.152,0 18.15,1.404 23.993,4.189 5.832,2.797 10.152,6.225 12.949,10.283 2.785,4.071 4.57,8.641 5.332,13.71 0.762,5.082 1.143,9.903 1.143,14.473 v 140.914 c 0,10.664 -1.274,19.805 -3.809,27.421 -2.547,7.618 -5.332,16.496 -8.379,26.66 -2.547,7.617 -5.213,14.591 -7.998,20.946 -2.797,6.344 -5.974,12.438 -9.52,18.282 -3.559,5.831 -7.367,11.675 -11.426,17.519 -4.07,5.831 -8.641,12.568 -13.711,20.185 l -50.272,76.931 c -8.64,12.687 -14.853,23.863 -18.662,33.515 -3.808,9.64 -7.498,21.328 -11.045,35.038 -3.558,13.711 -5.593,25.517 -6.093,35.419 -0.512,9.902 -0.762,21.709 -0.762,35.42 v 31.229 c 0,9.64 0.762,19.162 2.285,28.564 1.524,9.39 5.582,17.769 12.188,25.136 6.593,7.355 16.246,13.199 28.944,17.519 12.687,4.308 30.206,6.474 52.558,6.474 22.85,0 40.751,-2.166 53.7,-6.474 12.948,-4.32 22.72,-10.164 29.325,-17.519 6.594,-7.367 10.664,-15.877 12.187,-25.517 1.524,-9.652 2.286,-19.305 2.286,-28.945 V 453.211 h -51.796 v 140.915 c 0,5.07 -0.512,10.152 -1.524,15.234 -1.023,5.07 -3.047,9.64 -6.093,13.711 -3.047,4.058 -7.498,7.236 -13.331,9.521 -5.842,2.285 -13.59,3.428 -23.231,3.428 -10.664,0 -19.043,-1.405 -25.136,-4.19 -6.093,-2.797 -10.664,-6.094 -13.711,-9.902 -3.047,-3.808 -4.951,-8.26 -5.713,-13.33 -0.761,-5.081 -1.142,-9.902 -1.142,-14.472 v -38.085 c 0,-14.734 0.119,-27.552 0.381,-38.466 0.25,-10.926 2.404,-23.743 6.474,-38.466 3.047,-12.699 6.856,-23.612 11.426,-32.753 4.57,-9.14 10.663,-19.554 18.28,-31.23 l 47.988,-73.884 c 5.582,-8.641 12.187,-18.924 19.803,-30.849 7.618,-11.937 14.211,-24.755 19.805,-38.466 3.047,-7.117 5.582,-13.461 7.617,-19.042 2.024,-5.594 3.809,-11.176 5.332,-16.758 1.524,-5.594 2.666,-11.556 3.428,-17.899 0.762,-6.356 1.143,-13.592 1.143,-21.709 V 73.885 c 0,-9.64 -0.762,-19.042 -2.286,-28.183 M 847.392,36.181 C 844.083,28.314 838.632,21.459 831.015,15.615 823.397,9.783 813.496,5.082 801.309,1.523 c -12.188,-3.546 -27.171,-5.332 -44.941,-5.332 -36.061,0.512 -61.447,6.737 -76.17,18.663 -14.734,11.937 -22.089,26.79 -22.089,44.559 v 513.385 c 0,9.64 0.881,19.293 2.666,28.945 1.774,9.64 5.831,18.15 12.187,25.517 6.344,7.355 16.115,13.199 29.326,17.519 13.198,4.308 31.23,6.474 54.08,6.474 22.34,0 39.859,-2.166 52.558,-6.474 12.686,-4.32 22.339,-10.164 28.944,-17.519 6.594,-7.367 10.664,-15.746 12.188,-25.136 1.523,-9.402 2.285,-18.924 2.285,-28.564 V 451.688 h -52.558 v 142.438 c 0,4.57 -0.381,9.391 -1.142,14.472 -0.762,5.07 -2.547,9.522 -5.332,13.33 -2.797,3.808 -7.236,7.105 -13.33,9.902 -6.093,2.785 -14.472,4.19 -25.136,4.19 -9.653,0 -17.519,-1.143 -23.613,-3.428 -6.093,-2.285 -10.795,-5.463 -14.091,-9.521 -3.309,-4.071 -5.463,-8.641 -6.475,-13.711 -1.023,-5.082 -1.523,-10.164 -1.523,-15.234 V 44.94 c 0,-8.628 4.189,-16.114 12.568,-22.469 8.379,-6.344 19.424,-9.522 33.134,-9.522 15.734,0.512 27.159,3.69 34.276,9.522 7.106,5.843 10.664,13.079 10.664,21.708 v 164.527 h 52.558 V 60.937 c 0,-8.629 -1.655,-16.877 -4.951,-24.756 M 1091.52,0.762 v 331.34 h -90.642 V 0.762 h -51.034 v 572.036 c 0,9.64 0.881,19.293 2.666,28.945 1.773,9.64 5.832,18.15 12.187,25.517 6.343,7.355 16.115,13.199 29.325,17.519 13.199,4.308 31.23,6.474 54.082,6.474 22.338,0 39.857,-2.285 52.556,-6.855 12.688,-4.57 22.089,-10.414 28.183,-17.519 6.094,-7.117 9.902,-15.365 11.426,-24.755 1.523,-9.402 2.285,-18.924 2.285,-28.564 V 0.762 Z m 0,593.364 c 0,4.57 -0.381,9.391 -1.143,14.472 -0.762,5.07 -2.547,9.522 -5.331,13.33 -2.797,3.808 -7.236,7.105 -13.33,9.902 -6.094,2.785 -14.473,4.19 -25.136,4.19 -9.652,0 -17.519,-1.143 -23.613,-3.428 -6.094,-2.285 -10.795,-5.463 -14.092,-9.521 -3.309,-4.071 -5.463,-8.641 -6.474,-13.711 -1.024,-5.082 -1.523,-10.164 -1.523,-15.234 V 358.761 h 90.642 z m 242.219,29.706 V 0.762 h -51.795 v 623.07 h -73.124 v 23.613 h 201.089 V 623.832 Z M 1478.461,0.762 v 647.445 h 150.817 v -25.136 h -99.783 V 359.522 h 89.12 v -26.659 h -89.12 V 27.422 h 100.544 V 0.762 Z"
             style="fill:#4a4b3c;fill-opacity:1;fill-rule:nonzero;stroke:none"
             id="path144"
             inkscape:connector-curvature="0" /></g></g></g><g
       id="g146"><g
         id="g148"
         clip-path="url(#clipPath152)"><path
           d="m 2341.143,447.569 h -37.68 v 1646.36 h 37.68 z"
           style="fill:#4a4b3c;fill-opacity:1;fill-rule:nonzero;stroke:none"
           id="path154"
           inkscape:connector-curvature="0" /></g></g><g
       id="g156"><g
         id="g158"
         clip-path="url(#clipPath162)"><g
           id="g164"
           transform="translate(3292.8127,1400.1532)"><path
             d="m 0,0 c -0.604,-3.528 -1.261,-6.952 -1.965,-10.276 -0.708,-3.325 -1.464,-6.754 -2.266,-10.277 -0.808,-3.528 -1.715,-7.405 -2.721,-11.636 -1.814,-7.457 -3.579,-14.206 -5.289,-20.25 -1.714,-6.045 -3.429,-11.992 -5.139,-17.833 -1.714,-5.847 -3.579,-11.788 -5.591,-17.832 -2.016,-6.045 -4.336,-12.695 -6.952,-19.949 v -72.841 h -20.854 v 72.539 c -3.023,7.452 -5.644,14.305 -7.859,20.552 -2.219,6.244 -4.231,12.393 -6.045,18.438 -1.813,6.045 -3.58,12.189 -5.289,18.436 -1.715,6.243 -3.476,13.196 -5.29,20.855 -1.011,4.029 -1.917,7.755 -2.719,11.183 -0.808,3.424 -1.512,6.697 -2.117,9.824 -0.604,3.121 -1.161,6.347 -1.662,9.671 -0.505,3.325 -1.057,7 -1.662,11.032 h 20.855 c 0.604,-4.032 1.105,-7.707 1.511,-11.032 0.402,-3.324 0.907,-6.602 1.511,-9.823 0.605,-3.225 1.257,-6.498 1.965,-9.823 0.704,-3.324 1.558,-7.003 2.569,-11.032 1.407,-5.846 2.768,-11.135 4.08,-15.867 1.309,-4.737 2.616,-9.37 3.93,-13.904 1.308,-4.533 2.668,-9.171 4.08,-13.903 1.407,-4.737 3.023,-9.927 4.836,-15.565 1.61,5.44 3.173,10.578 4.685,15.414 1.51,4.836 2.97,9.62 4.382,14.357 1.408,4.731 2.768,9.567 4.08,14.507 1.309,4.935 2.668,10.324 4.081,16.17 1.813,7.859 3.272,14.659 4.382,20.402 1.106,5.743 2.367,12.439 3.779,20.099 H 2.115 C 1.308,7.405 0.604,3.523 0,0"
             style="fill:#4a4b3c;fill-opacity:1;fill-rule:nonzero;stroke:none"
             id="path166"
             inkscape:connector-curvature="0" /></g></g></g><g
       id="g168"><g
         id="g170"
         clip-path="url(#clipPath174)"><g
           id="g176"><g
             id="g178"><path
               d="m 1028.01,1201.975 c 0,-193.946 157.226,-351.166 351.167,-351.166 v 0 c 193.953,0 351.179,157.22 351.179,351.166 v 0 c 0,193.953 -157.226,351.179 -351.179,351.179 v 0 c -193.941,0 -351.167,-157.226 -351.167,-351.179"
               style="fill:url(#linearGradient192);stroke:none"
               id="path194"
               inkscape:connector-curvature="0" /></g></g></g></g><g
       id="g196"><g
         id="g198"
         clip-path="url(#clipPath202)"><g
           id="g204"><g
             id="g206"><path
               d="m 1485.322,1590 c -35.635,10.311 -73.226,15.946 -112.133,15.946 v 0 c -222.947,0 -404.33,-181.378 -404.33,-404.325 v 0 c 0,-222.947 181.383,-404.323 404.33,-404.323 v 0 c 222.661,0 403.865,180.927 404.329,403.482 v 0 1.682 c -0.318,156.744 -90.354,292.722 -221.315,359.51 v 0 c 14.865,30.96 55.936,45.898 55.936,45.898 v 0 c -33.297,9.518 -57.285,1.223 -73.152,-9.747 v 0 c 4.688,36.87 -2.188,88.916 -62.92,125.121 v 0 c 0,0 52.094,-64.7 9.255,-133.244 m -462.838,-388.379 c 0,28.485 3.506,56.154 9.937,82.684 v 0 c 88.971,15.315 350.485,72.026 469.361,224.44 v 0 c 0,0 72.691,-185.424 218.876,-260.201 v 0 c 2.061,-15.357 3.236,-31.002 3.236,-46.923 v 0 c 0,-193.376 -157.329,-350.7 -350.705,-350.7 v 0 c -193.378,0 -350.705,157.324 -350.705,350.7"
               style="fill:url(#linearGradient216);stroke:none"
               id="path218"
               inkscape:connector-curvature="0" /></g></g></g></g><g
       id="g220"><g
         id="g222"
         clip-path="url(#clipPath226)"><g
           id="g228"><g
             id="g230"><path
               d="m 1173.805,1092.516 c 16.232,-89.912 99.287,-168.184 199.384,-168.184 v 0 c 100.097,0 183.15,78.272 199.376,168.184 v 0 z"
               style="fill:url(#linearGradient240);stroke:none"
               id="path242"
               inkscape:connector-curvature="0" /></g></g></g></g><g
       id="g244"><g
         id="g246"
         clip-path="url(#clipPath250)"><g
           id="g252"><g
             id="g254"><path
               d="m 1199.61,1242.544 c 0,-25.859 20.968,-46.827 46.827,-46.827 v 0 c 25.864,0 46.826,20.968 46.826,46.827 v 0 c 0,25.865 -20.962,46.826 -46.826,46.826 v 0 c -25.859,0 -46.827,-20.961 -46.827,-46.826"
               style="fill:url(#linearGradient264);stroke:none"
               id="path266"
               inkscape:connector-curvature="0" /></g></g></g></g><g
       id="g268"><g
         id="g270"
         clip-path="url(#clipPath274)"><g
           id="g276"><g
             id="g278"><path
               d="m 1453.109,1242.544 c 0,-25.859 20.967,-46.827 46.826,-46.827 v 0 c 25.865,0 46.827,20.968 46.827,46.827 v 0 c 0,25.865 -20.962,46.826 -46.827,46.826 v 0 c -25.859,0 -46.826,-20.961 -46.826,-46.826"
               style="fill:url(#linearGradient288);stroke:none"
               id="path290"
               inkscape:connector-curvature="0" /></g></g></g></g></g></svg>