<?xml version="1.0" encoding="UTF-8" standalone="no"?>
<!-- Created with Inkscape (http://www.inkscape.org/) -->

<svg
   xmlns:dc="http://purl.org/dc/elements/1.1/"
   xmlns:cc="http://creativecommons.org/ns#"
   xmlns:rdf="http://www.w3.org/1999/02/22-rdf-syntax-ns#"
   xmlns:svg="http://www.w3.org/2000/svg"
   xmlns="http://www.w3.org/2000/svg"
   xmlns:sodipodi="http://sodipodi.sourceforge.net/DTD/sodipodi-0.dtd"
   xmlns:inkscape="http://www.inkscape.org/namespaces/inkscape"
   version="1.1"
   id="svg2"
   xml:space="preserve"
   width="2552.832"
   height="2425.4119"
   viewBox="0 0 2552.832 2425.4119"
   sodipodi:docname="logo-small.svg"
   inkscape:version="0.92.4 5da689c313, 2019-01-14"
   inkscape:export-filename="/home/shadow/bea/busquedayrescate/static/img/logo-small.png"
   inkscape:export-xdpi="1.88"
   inkscape:export-ydpi="1.88"><metadata
     id="metadata8"><rdf:RDF><cc:Work
         rdf:about=""><dc:format>image/svg+xml</dc:format><dc:type
           rdf:resource="http://purl.org/dc/dcmitype/StillImage" /><dc:title></dc:title></cc:Work></rdf:RDF></metadata><defs
     id="defs6"><clipPath
       clipPathUnits="userSpaceOnUse"
       id="clipPath18"><path
         d="m 721.415,2116.629 c -138.489,0 -250.754,-112.265 -250.754,-250.754 v 0 -1167.547 c 0,-138.488 112.265,-250.758 250.754,-250.758 v 0 h 1263.117 c 138.49,0 250.753,112.27 250.753,250.758 v 0 1167.547 c 0,138.489 -112.263,250.754 -250.753,250.754 v 0 z"
         id="path16"
         inkscape:connector-curvature="0" /></clipPath><linearGradient
       x1="0"
       y1="0"
       x2="1"
       y2="0"
       gradientUnits="userSpaceOnUse"
       gradientTransform="matrix(1764.624,0,0,1764.624,470.66138,1282.0991)"
       spreadMethod="pad"
       id="linearGradient36"><stop
         style="stop-opacity:1;stop-color:#e2a400"
         offset="0"
         id="stop24" /><stop
         style="stop-opacity:1;stop-color:#eeab23"
         offset="0.47420711"
         id="stop26" /><stop
         style="stop-opacity:1;stop-color:#eeab23"
         offset="0.47921"
         id="stop28" /><stop
         style="stop-opacity:1;stop-color:#ca9330"
         offset="0.9571471"
         id="stop30" /><stop
         style="stop-opacity:1;stop-color:#ca9330"
         offset="0.994842"
         id="stop32" /><stop
         style="stop-opacity:1;stop-color:#ca9330"
         offset="1"
         id="stop34" /></linearGradient><clipPath
       clipPathUnits="userSpaceOnUse"
       id="clipPath46"><path
         d="m 2113.204,1652.268 c -36.86,-15.789 -75.059,-64.737 -103.454,-96.974 v 0 c -51.712,-58.718 -107.499,-108.882 -169.354,-148.205 v 0 c -136.475,-86.789 -267.836,-67.47 -403.363,-132.794 v 0 c -45.916,-22.124 -110.875,-60.259 -123.509,-125.662 v 0 c -7.295,-37.739 -7.362,-67.008 5.046,-97.26 v 0 c 12.815,-31.225 69.442,-116.312 -14.427,-129.169 v 0 c -4.304,-0.66 -7.464,-5.01 -8.733,-9.506 v 0 c -5.797,-0.582 -12.834,-7.614 -14.093,-15.088 v 0 c -26.004,-153.817 184.577,-105.443 231.067,12.648 v 0 c 38.76,-35.211 88.888,-52.988 140.282,-39.106 v 0 c 55.68,15.051 182.121,86.017 158.282,166.786 v 0 c 31.211,3.268 62.362,13.597 90.727,32.663 v 0 c 58.617,39.4 155.626,159.415 101.967,217.342 v 0 c 35.899,20.165 70.55,45.124 102.621,76.995 v 0 c 52.885,52.546 135.802,153.289 113.618,235.445 v 0 c -11.348,41.977 -31.134,62.801 -61.962,62.806 v 0 c -12.906,0 -27.741,-3.65 -44.715,-10.921"
         id="path44"
         inkscape:connector-curvature="0" /></clipPath><linearGradient
       x1="0"
       y1="0"
       x2="1"
       y2="0"
       gradientUnits="userSpaceOnUse"
       gradientTransform="matrix(-686.18427,241.48216,-241.48216,-686.18427,2063.6353,1092.656)"
       spreadMethod="pad"
       id="linearGradient60"><stop
         style="stop-opacity:1;stop-color:#fcfcfc"
         offset="0"
         id="stop52" /><stop
         style="stop-opacity:1;stop-color:#c1c2c4"
         offset="0.84221775"
         id="stop54" /><stop
         style="stop-opacity:1;stop-color:#c1c2c4"
         offset="0.907557"
         id="stop56" /><stop
         style="stop-opacity:1;stop-color:#c1c2c4"
         offset="1"
         id="stop58" /></linearGradient><clipPath
       clipPathUnits="userSpaceOnUse"
       id="clipPath70"><path
         d="m 501.548,1600.383 c -22.177,-82.156 60.734,-182.899 113.621,-235.445 v 0 c 32.062,-31.871 66.726,-56.83 102.62,-76.995 v 0 c -53.66,-57.927 43.355,-177.942 101.96,-217.342 v 0 c 28.376,-19.066 59.521,-29.395 90.733,-32.663 v 0 C 886.643,957.169 1013.084,886.203 1068.77,871.152 v 0 c 51.387,-13.882 101.517,3.895 140.268,39.106 v 0 C 1255.53,792.167 1466.11,743.793 1440.12,897.61 v 0 c -1.266,7.474 -8.297,14.506 -14.105,15.088 v 0 c -1.265,4.496 -4.429,8.846 -8.727,9.506 v 0 c -83.871,12.857 -27.238,97.944 -14.428,129.169 v 0 c 12.408,30.252 12.348,59.521 5.047,97.26 v 0 c -12.636,65.403 -77.594,103.538 -123.515,125.662 v 0 c -135.517,65.324 -266.884,46.005 -403.365,132.794 v 0 c -61.854,39.323 -117.635,89.487 -169.34,148.205 v 0 c -28.402,32.237 -66.601,81.185 -103.466,96.974 v 0 c -16.963,7.271 -31.804,10.921 -44.709,10.921 v 0 c -30.835,0 -50.622,-20.823 -61.964,-62.806"
         id="path68"
         inkscape:connector-curvature="0" /></clipPath><linearGradient
       x1="0"
       y1="0"
       x2="1"
       y2="0"
       gradientUnits="userSpaceOnUse"
       gradientTransform="matrix(686.18427,241.48216,241.48216,-686.18427,657.79364,1092.6556)"
       spreadMethod="pad"
       id="linearGradient84"><stop
         style="stop-opacity:1;stop-color:#fcfcfc"
         offset="0"
         id="stop76" /><stop
         style="stop-opacity:1;stop-color:#c1c2c4"
         offset="0.84221775"
         id="stop78" /><stop
         style="stop-opacity:1;stop-color:#c1c2c4"
         offset="0.907557"
         id="stop80" /><stop
         style="stop-opacity:1;stop-color:#c1c2c4"
         offset="1"
         id="stop82" /></linearGradient><clipPath
       clipPathUnits="userSpaceOnUse"
       id="clipPath94"><path
         d="m 952.112,1204.343 v -1.726 c 0.458,-230.956 188.492,-418.692 419.555,-418.692 v 0 c 231.344,0 419.548,188.211 419.548,419.555 v 0 c 0,231.344 -188.204,419.554 -419.548,419.554 v 0 c -231.063,0 -419.097,-187.735 -419.555,-418.691 m 35.335,-0.863 c 0,211.857 172.356,384.219 384.22,384.219 v 0 c 211.856,0 384.212,-172.362 384.212,-384.219 v 0 c 0,-211.864 -172.356,-384.22 -384.212,-384.22 v 0 c -211.864,0 -384.22,172.356 -384.22,384.22"
         id="path92"
         inkscape:connector-curvature="0" /></clipPath><linearGradient
       x1="0"
       y1="0"
       x2="1"
       y2="0"
       gradientUnits="userSpaceOnUse"
       gradientTransform="matrix(839.10339,0,0,839.10339,952.11169,1203.4799)"
       spreadMethod="pad"
       id="linearGradient112"><stop
         style="stop-opacity:1;stop-color:#e2a400"
         offset="0"
         id="stop100" /><stop
         style="stop-opacity:1;stop-color:#eeab23"
         offset="0.47420711"
         id="stop102" /><stop
         style="stop-opacity:1;stop-color:#eeab23"
         offset="0.47921"
         id="stop104" /><stop
         style="stop-opacity:1;stop-color:#ca9330"
         offset="0.9571471"
         id="stop106" /><stop
         style="stop-opacity:1;stop-color:#ca9330"
         offset="0.994842"
         id="stop108" /><stop
         style="stop-opacity:1;stop-color:#ca9330"
         offset="1"
         id="stop110" /></linearGradient><clipPath
       clipPathUnits="userSpaceOnUse"
       id="clipPath124"><path
         d="m 318.332,0 h 4100 v 2653.937 h -4100 z"
         id="path122"
         inkscape:connector-curvature="0" /></clipPath><clipPath
       clipPathUnits="userSpaceOnUse"
       id="clipPath136"><path
         d="m 318.332,0 h 4100 v 2653.938 h -4100 z"
         id="path134"
         inkscape:connector-curvature="0" /></clipPath><clipPath
       clipPathUnits="userSpaceOnUse"
       id="clipPath152"><path
         d="m 318.332,0 h 4100 v 2653.937 h -4100 z"
         id="path150"
         inkscape:connector-curvature="0" /></clipPath><clipPath
       clipPathUnits="userSpaceOnUse"
       id="clipPath162"><path
         d="m 318.332,0 h 4100 v 2653.938 h -4100 z"
         id="path160"
         inkscape:connector-curvature="0" /></clipPath><clipPath
       clipPathUnits="userSpaceOnUse"
       id="clipPath174"><path
         d="m 1028.01,1201.975 c 0,-193.946 157.226,-351.166 351.167,-351.166 v 0 c 193.953,0 351.179,157.22 351.179,351.166 v 0 c 0,193.953 -157.226,351.179 -351.179,351.179 v 0 c -193.941,0 -351.167,-157.226 -351.167,-351.179"
         id="path172"
         inkscape:connector-curvature="0" /></clipPath><linearGradient
       x1="0"
       y1="0"
       x2="1"
       y2="0"
       gradientUnits="userSpaceOnUse"
       gradientTransform="matrix(1764.6277,0,0,1764.6277,469.42377,1201.9813)"
       spreadMethod="pad"
       id="linearGradient192"><stop
         style="stop-opacity:1;stop-color:#e2a400"
         offset="0"
         id="stop180" /><stop
         style="stop-opacity:1;stop-color:#eeab23"
         offset="0.47420711"
         id="stop182" /><stop
         style="stop-opacity:1;stop-color:#eeab23"
         offset="0.47921"
         id="stop184" /><stop
         style="stop-opacity:1;stop-color:#ca9330"
         offset="0.9571471"
         id="stop186" /><stop
         style="stop-opacity:1;stop-color:#ca9330"
         offset="0.994842"
         id="stop188" /><stop
         style="stop-opacity:1;stop-color:#ca9330"
         offset="1"
         id="stop190" /></linearGradient><clipPath
       clipPathUnits="userSpaceOnUse"
       id="clipPath202"><path
         d="m 1485.322,1590 c -35.635,10.311 -73.226,15.946 -112.133,15.946 v 0 c -222.947,0 -404.33,-181.378 -404.33,-404.325 v 0 c 0,-222.947 181.383,-404.323 404.33,-404.323 v 0 c 222.661,0 403.865,180.927 404.329,403.482 v 0 1.682 c -0.318,156.744 -90.354,292.722 -221.315,359.51 v 0 c 14.865,30.96 55.936,45.898 55.936,45.898 v 0 c -33.297,9.518 -57.285,1.223 -73.152,-9.747 v 0 c 4.688,36.87 -2.188,88.916 -62.92,125.121 v 0 c 0,0 52.094,-64.7 9.255,-133.244 m -462.838,-388.379 c 0,28.485 3.506,56.154 9.937,82.684 v 0 c 88.971,15.315 350.485,72.026 469.361,224.44 v 0 c 0,0 72.691,-185.424 218.876,-260.201 v 0 c 2.061,-15.357 3.236,-31.002 3.236,-46.923 v 0 c 0,-193.376 -157.329,-350.7 -350.705,-350.7 v 0 c -193.378,0 -350.705,157.324 -350.705,350.7"
         id="path200"
         inkscape:connector-curvature="0" /></clipPath><linearGradient
       x1="0"
       y1="0"
       x2="1"
       y2="0"
       gradientUnits="userSpaceOnUse"
       gradientTransform="matrix(808.659,0,0,808.659,968.85937,1260.2716)"
       spreadMethod="pad"
       id="linearGradient216"><stop
         style="stop-opacity:1;stop-color:#d3d8dd"
         offset="0"
         id="stop208" /><stop
         style="stop-opacity:1;stop-color:#d3d8dd"
         offset="0.03022412"
         id="stop210" /><stop
         style="stop-opacity:1;stop-color:#f3f4f8"
         offset="0.907557"
         id="stop212" /><stop
         style="stop-opacity:1;stop-color:#f3f4f8"
         offset="1"
         id="stop214" /></linearGradient><clipPath
       clipPathUnits="userSpaceOnUse"
       id="clipPath226"><path
         d="m 1173.805,1092.516 c 16.232,-89.912 99.287,-168.184 199.384,-168.184 v 0 c 100.097,0 183.15,78.272 199.376,168.184 v 0 z"
         id="path224"
         inkscape:connector-curvature="0" /></clipPath><linearGradient
       x1="0"
       y1="0"
       x2="1"
       y2="0"
       gradientUnits="userSpaceOnUse"
       gradientTransform="matrix(398.76086,0,0,398.76086,1173.8054,1008.424)"
       spreadMethod="pad"
       id="linearGradient240"><stop
         style="stop-opacity:1;stop-color:#d3d8dd"
         offset="0"
         id="stop232" /><stop
         style="stop-opacity:1;stop-color:#d3d8dd"
         offset="0.03022412"
         id="stop234" /><stop
         style="stop-opacity:1;stop-color:#f3f4f8"
         offset="0.907557"
         id="stop236" /><stop
         style="stop-opacity:1;stop-color:#f3f4f8"
         offset="1"
         id="stop238" /></linearGradient><clipPath
       clipPathUnits="userSpaceOnUse"
       id="clipPath250"><path
         d="m 1199.61,1242.544 c 0,-25.859 20.968,-46.827 46.827,-46.827 v 0 c 25.864,0 46.826,20.968 46.826,46.827 v 0 c 0,25.865 -20.962,46.826 -46.826,46.826 v 0 c -25.859,0 -46.827,-20.961 -46.827,-46.826"
         id="path248"
         inkscape:connector-curvature="0" /></clipPath><linearGradient
       x1="0"
       y1="0"
       x2="1"
       y2="0"
       gradientUnits="userSpaceOnUse"
       gradientTransform="matrix(93.65271,0,0,93.65271,1199.6102,1242.5438)"
       spreadMethod="pad"
       id="linearGradient264"><stop
         style="stop-opacity:1;stop-color:#d3d8dd"
         offset="0"
         id="stop256" /><stop
         style="stop-opacity:1;stop-color:#d3d8dd"
         offset="0.03022412"
         id="stop258" /><stop
         style="stop-opacity:1;stop-color:#f3f4f8"
         offset="0.907557"
         id="stop260" /><stop
         style="stop-opacity:1;stop-color:#f3f4f8"
         offset="1"
         id="stop262" /></linearGradient><clipPath
       clipPathUnits="userSpaceOnUse"
       id="clipPath274"><path
         d="m 1453.109,1242.544 c 0,-25.859 20.967,-46.827 46.826,-46.827 v 0 c 25.865,0 46.827,20.968 46.827,46.827 v 0 c 0,25.865 -20.962,46.826 -46.827,46.826 v 0 c -25.859,0 -46.826,-20.961 -46.826,-46.826"
         id="path272"
         inkscape:connector-curvature="0" /></clipPath><linearGradient
       x1="0"
       y1="0"
       x2="1"
       y2="0"
       gradientUnits="userSpaceOnUse"
       gradientTransform="matrix(93.652832,0,0,93.652832,1453.1088,1242.5438)"
       spreadMethod="pad"
       id="linearGradient288"><stop
         style="stop-opacity:1;stop-color:#d3d8dd"
         offset="0"
         id="stop280" /><stop
         style="stop-opacity:1;stop-color:#d3d8dd"
         offset="0.03022412"
         id="stop282" /><stop
         style="stop-opacity:1;stop-color:#f3f4f8"
         offset="0.907557"
         id="stop284" /><stop
         style="stop-opacity:1;stop-color:#f3f4f8"
         offset="1"
         id="stop286" /></linearGradient></defs><sodipodi:namedview
     pagecolor="#ffffff"
     bordercolor="#666666"
     borderopacity="1"
     objecttolerance="10"
     gridtolerance="10"
     guidetolerance="10"
     inkscape:pageopacity="0"
     inkscape:pageshadow="2"
     inkscape:window-width="1440"
     inkscape:window-height="781"
     id="namedview4"
     showgrid="false"
     fit-margin-top="100"
     fit-margin-left="100"
     fit-margin-right="100"
     fit-margin-bottom="100"
     inkscape:zoom="0.1399739"
     inkscape:cx="1256.2687"
     inkscape:cy="805.35809"
     inkscape:window-x="0"
     inkscape:window-y="27"
     inkscape:window-maximized="1"
     inkscape:current-layer="g10" /><g
     id="g10"
     inkscape:groupmode="layer"
     inkscape:label="busqueda logo"
     transform="matrix(1.3333333,0,0,-1.3333333,-527.54798,2922.1719)"><g
       id="g997"><g
         id="g12"><g
           clip-path="url(#clipPath18)"
           id="g14"><g
             id="g20"><g
               id="g22"><path
                 inkscape:connector-curvature="0"
                 id="path38"
                 style="fill:url(#linearGradient36);stroke:none"
                 d="m 721.415,2116.629 c -138.489,0 -250.754,-112.265 -250.754,-250.754 v 0 -1167.547 c 0,-138.488 112.265,-250.758 250.754,-250.758 v 0 h 1263.117 c 138.49,0 250.753,112.27 250.753,250.758 v 0 1167.547 c 0,138.489 -112.263,250.754 -250.753,250.754 v 0 z" /></g></g></g></g><g
         id="g40"><g
           clip-path="url(#clipPath46)"
           id="g42"><g
             id="g48"><g
               id="g50"><path
                 inkscape:connector-curvature="0"
                 id="path62"
                 style="fill:url(#linearGradient60);stroke:none"
                 d="m 2113.204,1652.268 c -36.86,-15.789 -75.059,-64.737 -103.454,-96.974 v 0 c -51.712,-58.718 -107.499,-108.882 -169.354,-148.205 v 0 c -136.475,-86.789 -267.836,-67.47 -403.363,-132.794 v 0 c -45.916,-22.124 -110.875,-60.259 -123.509,-125.662 v 0 c -7.295,-37.739 -7.362,-67.008 5.046,-97.26 v 0 c 12.815,-31.225 69.442,-116.312 -14.427,-129.169 v 0 c -4.304,-0.66 -7.464,-5.01 -8.733,-9.506 v 0 c -5.797,-0.582 -12.834,-7.614 -14.093,-15.088 v 0 c -26.004,-153.817 184.577,-105.443 231.067,12.648 v 0 c 38.76,-35.211 88.888,-52.988 140.282,-39.106 v 0 c 55.68,15.051 182.121,86.017 158.282,166.786 v 0 c 31.211,3.268 62.362,13.597 90.727,32.663 v 0 c 58.617,39.4 155.626,159.415 101.967,217.342 v 0 c 35.899,20.165 70.55,45.124 102.621,76.995 v 0 c 52.885,52.546 135.802,153.289 113.618,235.445 v 0 c -11.348,41.977 -31.134,62.801 -61.962,62.806 v 0 c -12.906,0 -27.741,-3.65 -44.715,-10.921" /></g></g></g></g><g
         id="g64"><g
           clip-path="url(#clipPath70)"
           id="g66"><g
             id="g72"><g
               id="g74"><path
                 inkscape:connector-curvature="0"
                 id="path86"
                 style="fill:url(#linearGradient84);stroke:none"
                 d="m 501.548,1600.383 c -22.177,-82.156 60.734,-182.899 113.621,-235.445 v 0 c 32.062,-31.871 66.726,-56.83 102.62,-76.995 v 0 c -53.66,-57.927 43.355,-177.942 101.96,-217.342 v 0 c 28.376,-19.066 59.521,-29.395 90.733,-32.663 v 0 C 886.643,957.169 1013.084,886.203 1068.77,871.152 v 0 c 51.387,-13.882 101.517,3.895 140.268,39.106 v 0 C 1255.53,792.167 1466.11,743.793 1440.12,897.61 v 0 c -1.266,7.474 -8.297,14.506 -14.105,15.088 v 0 c -1.265,4.496 -4.429,8.846 -8.727,9.506 v 0 c -83.871,12.857 -27.238,97.944 -14.428,129.169 v 0 c 12.408,30.252 12.348,59.521 5.047,97.26 v 0 c -12.636,65.403 -77.594,103.538 -123.515,125.662 v 0 c -135.517,65.324 -266.884,46.005 -403.365,132.794 v 0 c -61.854,39.323 -117.635,89.487 -169.34,148.205 v 0 c -28.402,32.237 -66.601,81.185 -103.466,96.974 v 0 c -16.963,7.271 -31.804,10.921 -44.709,10.921 v 0 c -30.835,0 -50.622,-20.823 -61.964,-62.806" /></g></g></g></g><g
         id="g88"><g
           clip-path="url(#clipPath94)"
           id="g90"><g
             id="g96"><g
               id="g98"><path
                 inkscape:connector-curvature="0"
                 id="path114"
                 style="fill:url(#linearGradient112);stroke:none"
                 d="m 952.112,1204.343 v -1.726 c 0.458,-230.956 188.492,-418.692 419.555,-418.692 v 0 c 231.344,0 419.548,188.211 419.548,419.555 v 0 c 0,231.344 -188.204,419.554 -419.548,419.554 v 0 c -231.063,0 -419.097,-187.735 -419.555,-418.691 m 35.335,-0.863 c 0,211.857 172.356,384.219 384.22,384.219 v 0 c 211.856,0 384.212,-172.362 384.212,-384.219 v 0 c 0,-211.864 -172.356,-384.22 -384.212,-384.22 v 0 c -211.864,0 -384.22,172.356 -384.22,384.22" /></g></g></g></g><g
         id="g168"><g
           clip-path="url(#clipPath174)"
           id="g170"><g
             id="g176"><g
               id="g178"><path
                 inkscape:connector-curvature="0"
                 id="path194"
                 style="fill:url(#linearGradient192);stroke:none"
                 d="m 1028.01,1201.975 c 0,-193.946 157.226,-351.166 351.167,-351.166 v 0 c 193.953,0 351.179,157.22 351.179,351.166 v 0 c 0,193.953 -157.226,351.179 -351.179,351.179 v 0 c -193.941,0 -351.167,-157.226 -351.167,-351.179" /></g></g></g></g><g
         id="g196"><g
           clip-path="url(#clipPath202)"
           id="g198"><g
             id="g204"><g
               id="g206"><path
                 inkscape:connector-curvature="0"
                 id="path218"
                 style="fill:url(#linearGradient216);stroke:none"
                 d="m 1485.322,1590 c -35.635,10.311 -73.226,15.946 -112.133,15.946 v 0 c -222.947,0 -404.33,-181.378 -404.33,-404.325 v 0 c 0,-222.947 181.383,-404.323 404.33,-404.323 v 0 c 222.661,0 403.865,180.927 404.329,403.482 v 0 1.682 c -0.318,156.744 -90.354,292.722 -221.315,359.51 v 0 c 14.865,30.96 55.936,45.898 55.936,45.898 v 0 c -33.297,9.518 -57.285,1.223 -73.152,-9.747 v 0 c 4.688,36.87 -2.188,88.916 -62.92,125.121 v 0 c 0,0 52.094,-64.7 9.255,-133.244 m -462.838,-388.379 c 0,28.485 3.506,56.154 9.937,82.684 v 0 c 88.971,15.315 350.485,72.026 469.361,224.44 v 0 c 0,0 72.691,-185.424 218.876,-260.201 v 0 c 2.061,-15.357 3.236,-31.002 3.236,-46.923 v 0 c 0,-193.376 -157.329,-350.7 -350.705,-350.7 v 0 c -193.378,0 -350.705,157.324 -350.705,350.7" /></g></g></g></g><g
         id="g220"><g
           clip-path="url(#clipPath226)"
           id="g222"><g
             id="g228"><g
               id="g230"><path
                 inkscape:connector-curvature="0"
                 id="path242"
                 style="fill:url(#linearGradient240);stroke:none"
                 d="m 1173.805,1092.516 c 16.232,-89.912 99.287,-168.184 199.384,-168.184 v 0 c 100.097,0 183.15,78.272 199.376,168.184 v 0 z" /></g></g></g></g><g
         id="g244"><g
           clip-path="url(#clipPath250)"
           id="g246"><g
             id="g252"><g
               id="g254"><path
                 inkscape:connector-curvature="0"
                 id="path266"
                 style="fill:url(#linearGradient264);stroke:none"
                 d="m 1199.61,1242.544 c 0,-25.859 20.968,-46.827 46.827,-46.827 v 0 c 25.864,0 46.826,20.968 46.826,46.827 v 0 c 0,25.865 -20.962,46.826 -46.826,46.826 v 0 c -25.859,0 -46.827,-20.961 -46.827,-46.826" /></g></g></g></g><g
         id="g268"><g
           clip-path="url(#clipPath274)"
           id="g270"><g
             id="g276"><g
               id="g278"><path
                 inkscape:connector-curvature="0"
                 id="path290"
                 style="fill:url(#linearGradient288);stroke:none"
                 d="m 1453.109,1242.544 c 0,-25.859 20.967,-46.827 46.826,-46.827 v 0 c 25.865,0 46.827,20.968 46.827,46.827 v 0 c 0,25.865 -20.962,46.826 -46.827,46.826 v 0 c -25.859,0 -46.826,-20.961 -46.826,-46.826" /></g></g></g></g></g></g></svg>